<?xml version="1.0" ?><!DOCTYPE svg  PUBLIC '-//W3C//DTD SVG 1.1//EN'  'http://www.w3.org/Graphics/SVG/1.1/DTD/svg11.dtd'><svg enable-background="new 0 0 512 512" height="512px" id="Layer_1" version="1.1" viewBox="0 0 512 512" width="512px" xml:space="preserve" xmlns="http://www.w3.org/2000/svg" xmlns:xlink="http://www.w3.org/1999/xlink"><g id="_x31_54_x2C__Play_x2C__Video_x2C__Twitter"><g id="XMLID_5068_"><g id="XMLID_6729_"><g><g><g><path d="M123.421,433.721c-1.25,0-3.832-0.932-3.832-3.811V82.09c0-2.879,2.582-3.81,3.832-3.81        c0.668,0,1.314,0.205,1.975,0.627l261.58,167.17c4.904,3.134,5.435,7.983,5.435,9.922c0,1.938-0.529,6.788-5.436,9.923        l-261.579,167.17C124.736,433.515,124.089,433.721,123.421,433.721z" fill="#FFF500"/></g></g></g><g><g><path d="M123.421,461.721c-17.552,0-31.832-14.271-31.832-31.811V82.09c0-17.54,14.279-31.811,31.832-31.811       c6.003,0,11.9,1.741,17.054,5.035l261.58,167.17c11.494,7.347,18.355,19.876,18.355,33.516c0,13.641-6.861,26.17-18.354,33.516       l-261.581,167.17C135.321,459.979,129.424,461.721,123.421,461.721z M123.421,70.279c-5.69,0-11.832,4.516-11.832,11.811       v347.82c0,7.295,6.141,11.811,11.832,11.811c2.21,0,4.324-0.635,6.284-1.888l261.58-167.169       c5.799-3.707,9.125-9.781,9.125-16.664s-3.326-12.957-9.126-16.664L129.705,72.167       C127.746,70.915,125.631,70.279,123.421,70.279z"/></g></g></g></g></g><g id="Layer_1_1_"/></svg>